<?xml version="1.0" encoding="UTF-8"?>
<svg xmlns="http://www.w3.org/2000/svg" version="1.1" viewBox="0 0 800 800">
  <!-- Generator: Adobe Illustrator 29.4.0, SVG Export Plug-In . SVG Version: 2.1.0 Build 152)  -->
  <defs>
    <style>
      .st0 {
        fill: #fcfff8;
      }

      .st1 {
        fill: #659665;
      }

      .st2 {
        fill: #a8d879;
      }
    </style>
  </defs>
  <g id="BACKGROUND">
    <rect class="st0" width="800" height="800"/>
  </g>
  <g id="OBJECTS">
    <g>
      <path class="st2" d="M739.66,392.91c3.16-3.43-.85-8.9-5.02-6.5-8.51,4.9-15.9,11.07-22.8,17.81-.35.27-.7.53-1.04.81-2.06,1.63-4.26,3.47-6.31,5.52-3.05,2.06-5.91,4.49-8.63,7.13,3.65-7.47,5.98-15.34,5-24.2-.48-4.39-1.53-10.5-5.76-12.97-4.07-2.39-8.1-.55-11.38,2.21-.77.55-1.42,1.16-1.98,1.85-8.01,8.24-10.15,20.45-11.6,31.4-1.46,11.04-2.48,23.17-10.39,31.54-.08-.26-.41-.5-1.13-.68-.91-2.99-3.45-2.96-5.27-5.51-.61-.85-1.35-1.42-2.14-1.72,0-.34,0-.69,0-1.03,0-2.66.06-5.31.1-7.96.03-2.2.06-4.41.05-6.62.56-4.77.81-9.83-.8-14.11-.1-.25-.22-.48-.33-.72-.6-2.83-1.73-5.64-4.26-6.72-5.76-2.47-9.68,3.59-12.19,7.84-.51.87-.67,1.72-.58,2.5-.62,1.93-.93,4.02-.96,6.11-.97,7,.54,15.33,1.9,21.2-1.61.46-3.51,1.23-5.08,2.24-2.88,1.84-5.19,4.16-7,6.79-.09,0-.19.03-.28.05-2.52-.18-4.63-1.15-6.87-.08-.01.02,0,.05-.02.07-.42.78-.97,1.3-1.74,1.71-.72.38-1.48-.44-1.38-1.13.13-.93.31-1.85.72-2.7.1-.21.25-.34.41-.44.6-1.3,1.21-2.6,1.82-3.91-.02-.17,0-.36.09-.56.41-.85.84-1.69,1.27-2.53.13-.32.28-.63.4-.95.67-1.68.97-3.48,2.16-4.83.57-2.98,2.18-5.56,3.96-8.23,3.32-5,4.37-10.39,6.65-15.83.07-.16.16-.28.26-.37.25-.81.49-1.62.74-2.43.4-2.65.34-5.27.81-7.9-.06-.58-.12-1.14-.15-1.57-.25.02-.5.06-.74.12-.06.14-.15.27-.28.38-4.82,4.29-8.75,9.38-12.47,14.61,0,.02,0,.04,0,.06,0,.48-.26.81-.6.97-3.85,7.02-7.24,14.26-10.7,21.47-.16.33-.42.49-.69.55-.01.45,0,.87,0,1.25.03,1.32-2.02,1.54-2.05.2,0-.23,0-.46,0-.7-.11-.08-.2-.17-.27-.3-.18-.23-.27-.54-.23-.81.06-.36.27-.59.55-.72.07-1.17.21-2.41.46-3.64.04-2.31.04-4.62-.04-6.93,1.99-7.69,3.46-15.49,4.16-23.44.52-5.88,2.32-13.39,1.6-19.25-.05-7.93-.53-20.53-4.82-24.94-.96,5.32-4.45,12.23-5.62,17.49-2.06,9.23-2.96,18.68-2.89,28.17.28,2.5-.56,1.49-.39,4,.05.67.13,2.97-.39,2.97,0,1.06-.08,1.65-.13,2.71.24,2.71.76,5.37.65,8.13-.06,1.33-.31,2.6-.26,1.29.05-1.09.02-.85,0-1.93-.37-.17.07-1.03.13-1.55.14-1.2-.83-2.1-.75-3.31-.59-6.53-1.89-12.96-2.08-19.54-.01-.38.16-.66.4-.85-1.16-3.59-1.25-7.3-1.47-11.01-.31-.11-.56-.37-.61-.83-.24-2.3-.35-4.59-.4-6.89-1.11-5.75-2.29-11.5-2.8-17.33-1.17-3.56-1.14-7.41-1.84-11.08-.1-.52-.89-3.44-.52-3.58-2.16-9.64-2.3-16.5-4.26-26.18-.08-.41-.22-.77-.39-1.09-.67.18-1.22.59-1.68,1.14.44.22.72.7.44,1.27-.42.83-.69,1.7-.88,2.58.15.19.24.45.18.78-.42,2.29-.32,4.47-.5,6.8,0,.09,0,.94,0,1.03.43,4.49-.04,7.27.52,11.22.69,4.95,1.76,10.05,1.9,15.05,0,.19-.04.37-.12.53.49,2.15.71,4.34,1.19,6.5.1.46-.09.77-.39.93.11.91-1.13,1.42-1.77.77-.22-.09-1.37-3.73-1.45-4.05l-4.93-14.13c-2.92-8.65-7.03-16.76-13.22-23.33-2.52-2.67-5.41-5.19-8.61-7.11-2.34-1.88-4.92-3.4-7.78-4.43-1.34-.48-3.03.05-4.09,1.1-1.58.24-2.96.91-4.13,1.85-.62.37-1.16.89-1.5,1.49-1.77,2.16-2.83,5.05-3.09,7.89-.73,7.99,2.05,15.63,5.12,22.85,3.55,8.33,8.25,16.16,13.14,23.76,3.78,5.87,7.78,11.59,11.91,17.22-.21.65-.27,1.4-.09,2.21,2.75,13.17,8.21,25.53,14.2,37.6-.04.07-.09.13-.13.2-1.96,3.84-2.71,7.83-2.79,11.93-2.32-.41-4.81-.1-7.12.85-1.07.44-2.12.96-3.14,1.57,1.18-3.18,5.87-9.39,5.98-12.72.14-4.35-9.17-2.21-11.29.53-.32.19-.61.42-.86.73-1.77,2.17-3.4,4.43-4.92,6.75-.47-.66-1.11-1.18-1.86-1.47.92-2.04,1.78-4.11,2.52-6.22.43-1.21,1.62-3.93,1.14-4.75.32-2.22-2.23-2.92-4.38-3.14.46-7.55,1.22-15.1,1.36-22.66.18-9.84.35-22.64-5.94-30.89-1.12-1.47-2.48-2.79-3.98-3.87-1.03-2.07-9.38-4.45-10.94-2.58-2.3.76-4.3,2.6-5.56,5.86-2.37,6.13-1.11,15.29,1.84,21.72,1.73,10.4,5.1,20.58,6.51,31.01-1.68-1.74-4.01-2.28-7.25-.34-.4.24-.72.51-.99.8-3.56-2.99-3.23.19-4.15,1.81-.65-2.56-1.44-5.1-2.44-7.59-.19-.48-.44-.89-.74-1.24.43-2.83.69-5.69.85-8.47.68-11.28-.62-22.84-3.09-33.85-2.02-8.99-5.39-19.76-12.47-26.04-3.08-2.74-7.67-4.55-11.23-1.58-.59.49-1.05,1.05-1.41,1.66,3.06-5.27,6.22-10.95,8.81-16.87,1.43-1.77,2.84-3.55,4.2-5.38,3.37-4.55,7.92-10.72,7.51-16.73,0-.04-.01-.08-.01-.12.35-1.44.45-2.92.13-4.4-.38-1.76-1.32-3.13-2.58-4.18-.75-1.86-3.04-2.91-5-2.44-.05.01-.09.02-.14.04-.05-.01-.1-.02-.15-.04-1.84-.41-3.3.33-4.2,1.51-1.96.85-3.83,1.91-5.58,3.14-13.59,8.87-24.38,24.51-29.22,39.93-1.82,4.93-3.23,10-4.14,15.08-1.03-.45-2.26-.44-3.53.34-6.49,4-10.49,10.18-12.97,17.3-1.91-16.74-3.38-33.9-7.67-50.15-.16-3.85-1.4-7.05-1.64-11.77-.82-1.72-1.69-3.42-2.52-5.13-.74-4.68-1.5-.35-2.27-.26-2.16,6.49-1.05,14.9-.37,21.55.06.07.12.13.16.23.13.29.23.59.33.9.12.15.21.32.24.52l.2,1.21c.23,1.16.37,2.34.53,3.51-.12-.28-.28-.55-.46-.75l-4.13-14.32c-1.29-2.58-1.29-4.64-1.16-6.96.71-5.2-.05-10.73.07-19.33.14-9.78-2.19-20.48-10.59-26.42-3.24-2.29-7.96-2.71-11.25-.36-.06.04-.1.08-.16.12-16.82,2.69-11.48,39.28-5.47,56.62-.01,0-.02-.01-.03-.01-.65-.28-1.28-.38-1.89-.36.73,1.68,1.44,3.36,2.14,5.05.32.05.62.22.79.58.59,1.19,1.13,2.4,1.67,3.61,1.59,2.38,2.99,4.89,4.31,7.44.74.87,1.55,1.7,1.88,2.18.93,1.33,1.82,2.69,2.52,4.16.34.72.67,1.46,1,2.2,2.48,3.7,5.26,7.67,7.11,11.78,2.04,2.83,4.01,5.71,5.85,8.68,1.25,2.89,2.42,5.81,3.54,8.74.08.06.16.13.23.23,2.17,3.3,3.8,6.96,4.49,10.85.86,2.11,1.61,4.26,2.25,6.45,1.93,2.44,3.21,5.87,3.46,8.9,1.24,2.76,1.8,5.8,2.31,8.84,1.36,2.8,1.58,8.02,1.8,9.65.41,3.08.36,6.06-.04,8.97.02.16.05.33.07.49-.02.16-.04.32-.04.49-.09.2-.18.41-.27.61-.65,3.49-1.83,6.89-3.47,10.26-.4.82-1.39.68-1.8.14-.44-.04-.9-.02-1.36.11-1.18.32-2.35.69-3.5,1.1.03-.27.05-.55.05-.83,0-2.87-2.63-4.47-5.24-3.99-1.47.27-2.91.65-4.31,1.12-3.08.14-4.26,1.66-6.88,3.06.36-1.53.8-2.44,1.2-3.96.53-.24.68.38.67,1.04.45-.65,1.19-1.25,1.05-1.9,1.16-3.61.87-1.45,2.58-4.82,1.94.43,4-13.04,4.56-15.54.63-2.77.66-5.64.37-8.51.5-4.59-.39-9.43-1.15-13.88-1.21-7.04-3.12-14.01-5.81-20.63-2.19-5.39-4.98-11.22-10.05-14.47-2.6-1.67-5.2-1.74-7.57-.9-4.37-.99-7.76,3.33-8.61,7.74-.05.27-.08.54-.08.79-.96.91-1.51,2.25-1.16,3.89,2.96,13.93,10.24,27.69,19.33,38.63.11,3.5-.64,6.98-2.76,10.34-.99,1.57-.78,3.1.05,4.23-.15.27-.3.53-.45.8-2.08.69-4.08,1.71-5.89,3-.7-10.22-1.6-20.45-4.09-30.41-2.73-10.93-8.15-22.34-18.73-27.55-3.04-1.49-5.84.39-6.23,3.58-.53,4.23-.4,8.43.18,12.59-2.46-1.55-6.39.27-6.39,3.56,0,11.23.1,22.46.98,33.65.26,3.29.55,6.67.97,10.04-1.99,1.36-3.61,3.12-4.87,5.14,0-.13,0-.26.02-.4,1.15-7.95-3.65-5.38-6.23-3.58-4.85,3.4-8.66,7.76-12.13,12.42-.13-.42-.27-.84-.42-1.26-.73-1.98-2.84-3.71-5.09-2.89-.31.11-.62.24-.93.36,7.65-17.1,15.46-33.13,26.07-49.33,2.38-3.63-.26-7.55-3.6-7.06,8.16-10.75,15.21-23.56,13.45-36.22.02-.21.05-.42.06-.63.06-.79-.19-1.55-.62-2.2-.22-.88-.46-1.75-.77-2.62-.75-2.13-2.8-3.52-5.09-2.89-5.62,1.53-11.16,4.47-15.84,8.41-.48-.01-.99.07-1.54.28-3.68,1.39-7.02,3.32-10.09,5.61.94-.89,1.87-1.79,2.79-2.69.18-.09.37-.19.55-.32,7.25-4.88,14.88-13.01,16.61-21.78.84-2.12,1.34-4.33,1.23-6.58-.18-3.58-1.96-6-4.47-7.6-.03-.04-.06-.09-.09-.13-9.44-12.69-26.29-7.35-35.69,2.27-.17.17-.31.34-.43.52-13.99,11.4-20.43,34.54-22.77,51.66-.4,0-.8.01-1.2.01-1.79,0-3.57,1.26-3.99,3.04-4.36,18.34-1.61,37.65,4.25,55.46.17,2.2.35,4.39.56,6.58-.25-.11-.52-.2-.79-.26-.39-1.07-.85-2.12-1.42-3.16-.68-1.25-2.16-2.08-3.58-2.05-2.18.05-4.67.21-6.6,1.32.68-17.52,1.9-35.04,1.73-52.6-.13-13.39-.65-26.97-3.24-40.14-1.08-5.49-2.8-12.31-6.66-16.87-1.12-2.23-2.75-4.17-4.87-5.42-2.39-.21-5.11-.66-7.51-.2-.87.54-1.71,1.24-2.45,1.98-1.39,1.66-2.4,3.79-3.06,5.51-.43,1.11-.68,2.25-.86,3.4-.02.56-.04,1.11-.07,1.61-.01.24-.1.4-.22.53-.13,1.14-.26,2.28-.47,3.42-.01.05-.04.09-.06.14-1.05,13.15,1.66,26.16,4.78,39.17-1.8.26-3.34,1.56-3.15,3.93,1.44,18.58,6.23,36.64,11.33,54.51.27.95.76,1.64,1.38,2.12.26,1.09.52,2.18.79,3.26-.73.42-1.34,1.04-1.68,1.87-.12-.17-.24-.34-.37-.51-1.62-2.21-5.75-3.13-7.15,0-.95,2.11-1.48,4.24-1.72,6.37-.21.2-.42.4-.61.61-1.49-.56-3.29-.33-4.47.89-.59.61-1.14,1.24-1.66,1.88.01-.48.03-.96.04-1.44.04-3.9-5.95-5.95-7.72-2.09-.91,1.99-1.54,4-2.06,6.04-.17-.27-.34-.55-.51-.82.09-.24.16-.5.2-.78,2.69-16.59.52-33.74,3.77-50.19,3.21-16.26,3.76-32.94,7.4-49.17,1.79-7.97.97-10.46-.72-10.33-.69,4.21-3.47,8.48-5.71,12.48-.14,1.64-.74,3.22-1.39,4.76-1.38,3.28-2.39,6.59-3.37,10.01-2.36,8.21-4.65,16.44-6.61,24.75-.09.4-.36.62-.66.73-1.96,11.64-3.83,23.29-5.53,34.98-.91-4.55-1.85-9.1-2.78-13.65-1.85-25.67-5.65-51.31-9.59-76.73,0-2.32-.82-3.2-.76-5.48.05-2.01-1.08-3.25-2.53-3.74-.14.73-.25,1.46-.36,2.19.02.1.04.2.03.31-1,9.12-.87,18.26-.68,27.41,0,0,0,0,0,.01,0,.04,0,.09,0,.13.02,1.23.05,2.46.07,3.7.2,3.96.77,7.89,1.3,11.83.03.22-.02.39-.09.55.06.57.13,1.15.18,1.72.33,2.44.64,4.89.6,7.36,0,.2-.06.36-.14.51.05.29.1.58.14.87.2,1.32-1.86,1.52-2.05.2-.06-.43-.15-.85-.22-1.28-.05-.09-.1-.17-.12-.27-.13-.58-.25-1.16-.37-1.75.06.38.12.77.18,1.15-1.66-8.94-8.61-21.52-17.66-32.36-.36-.65-.72-1.3-1.08-1.94-3.5-6.17-9.36-14.78-16.59-17.34-6.51-4.18-14.61-5.57-22.17-3.57-4.3,1.13-7.9,3.9-9.96,7.42-.8.77-1.28,1.9-1.32,3.02-.37,1.24-.56,2.53-.54,3.86-.05.12-.11.22-.16.34-.03.06-.04.13-.06.19.05.29.1.56.15.81.26,1.23.51,2.47.69,3.71.27.31.56.59.89.82.01.02.02.04.03.06,1.9,3.64,5.99,5.98,9.49,7.8,4.27,2.23,8.09,4.18,11.9,7.16,5.95,4.65,13.05,8.7,18.99,13.77-1.83.67-3.29,2.45-2.75,4.88,1.07,4.85,2.55,9.54,4.33,14.11-5.05-5.15-11.9-10.46-17.83-7.32-3.82,2.02-4.52,6.71-4.5,10.61.02,5.69,1.62,10,4.99,14.49,1.25,1.66,2.57,3.26,3.93,4.83,2.9,5,6.42,9.69,9.97,14.3-1.8.77-2.44,3.08-2.13,4.87.06.33.13.65.19.97-2.02-.03-3.29,1.3-3.76,2.97-3.95-4.52-7.07-9.74-9.66-15.2.05-.16.07-.33.1-.5-1.09-2.01-1.79-4.25-2.08-6.49-5.15-14.33-.81-31.19-3.32-46-1.13-6.68-4.81-14.6-10.64-18.46-4.9-3.25-8.84-1.31-11.46,2.32-.61.43-1.15.91-1.58,1.41-3.63,4.24-4.16,10.45-4.39,15.79-.08,1.9-.1,3.82-.07,5.76-.34,4.96.29,10.29,1.31,15.45.03.19.06.37.09.56-7.21-7.52-25.13-26.61-37.06-20.16-1.43-.33-2.87-.61-4.35-.8-2.08-.27-3.32.86-3.75,2.37.28.21.4.5.39.81.28.3.55.61.83.91.26.02.52.13.72.39,2.59,3.17,5.39,6.14,8.25,9.05,1.1,1.03,2.24,2.02,3.42,2.96.3.24.39.55.37.84,4.24,4.2,8.5,8.38,12.4,12.9,1.73,1.21,3.12,2.79,4.5,4.39,3.88,3.49,7.69,7.06,11.29,10.79,3.16,5.84,6.7,11.5,10.36,17-.16-.05-.32-.11-.48-.15-1.6-.45-8.25-2.74-9.42-1.85.15.15.26.35.26.64,0,.03,0,.06,0,.09.19.1.35.26.45.51,2.53,6.7,6.04,12.92,11.02,18.09.37.06.72.31.84.66.09.23.07.46,0,.66,0,.51-.36.99-.8,1.1-.44.23-.84.3-1.22.24-.02.05-.05.09-.06.14-.09-.07-.17-.14-.26-.21-.93-.3-1.68-1.27-2.42-2.03-3.14-2.63-6.23-5.33-9.21-8.15-1.11-1.82-2.13-3.69-3.1-5.47-3.71-6.81-6.83-13.93-10.24-20.89-4.68-9.55-12.3-26.03-25.38-24.66-2.14.22-3.54,1.38-4,3.33-1.88,2.36-2.69,5.89-2.9,8.57-.49,6.34,2.85,12.8,6.13,17.97,2.81,4.43-.62,1.81,2.97,5.68-7.47-5.55-8.75-5.36-16.51-10.49-.6-.54-1.2-1.05-1.79-1.57-1.52-.56-3.11-1-4.54-1.74-2.17-1.12-4.34-2.26-6.49-3.43-3.02-1.64-7.04-4.68-10.56-4.96-.62-.05-.86-.52-.83-.99-.26.12-.51.25-.77.37.53.67,1.03,1.35,1.52,2.05.89.93,1.78,1.87,2.67,2.81,1.41,1.49,2.84,2.99,3.97,4.68,1.92,1.56,3.83,3.14,5.71,4.76.11.5.34,1.02.73,1.55,1.46,1.96,3,3.86,4.59,5.71,1.93,1.47,3.66,3.22,5.51,4.8,3.08,2.62,6.27,5.11,9.52,7.52,1.07.8-.22,2.4-1.29,1.61-.25-.18-.5-.37-.74-.56-.75.89-1.09,2.1-.62,3.53.66,2.01,1.54,3.91,2.6,5.73-.23,1.16,0,2.42.95,3.55.65.78,1.37,1.52,2.1,2.25-6.72,1.33-12.94,4.76-14.86,10.32-2.53,2.94-3.61,6.43-1.72,10.43,1.58,3.36,4.55,5.12,8.09,5.89,8.32,5.01,19.47,4.93,28.82,1.77.38-.05.77-.1,1.16-.16,5.9,1.85,12.15,2.03,18.02.4.33,0,.65,0,.98-.01,2.35.47,4.81.52,7.07.22.69-.09,1.38-.22,2.06-.37,4.32.04,8.77-.84,12.89-2.51.36-.01.71-.03,1.07-.06,2.58-.24,4.95-1.02,7.11-2.16,2.95.08,5.93-.27,8.81-1.03.35.94.88,1.83,1.62,2.63,3.42,3.72,10,3.68,14.6,3.42,10.04-.58,22.48-3.23,28.5-11.83,4.24-.1,8.53-.99,12.27-2.46,1.94-.76,3.83-1.81,5.46-3.1,1.87,1.48,3.96,2.67,6.22,3.43,2.6,3.51,7.01,5.87,11.1,6.7,5.86,1.19,11.41-.42,16.36-3.29,1.37.01,2.73-.1,4.09-.45.64-.16,1.24-.4,1.81-.69,4.99,1.05,10.19,1.81,15.03,1.3,6.43,7.08,19.96,6,31.06,1.55,3.29,1.63,7.41,2.06,11.16,1.44.24-.04.49-.09.74-.14,10.19,7.81,25.62,7.68,37.36,1.64,3.48.38,7.07-.76,10.29-2.16.33-.15.67-.31,1-.47.56-.06,1.11-.16,1.67-.34,1.9-.59,3.34-1.71,4.46-3.13,10.87,11.33,25.97,9.56,40.33,4.02,1-.27,2-.56,2.99-.88,2.38.04,4.82-.18,7.23-.6,3.79,4.08,10.17,5.45,15.69,5.85,1.29.09,2.61.11,3.93.08,1.86.68,3.74,1.31,5.63,1.88,4.56,2.52,10.6,3.7,14.57,4.07,10.25.95,22.6-1.35,30.07-8.95,1.87.64,3.8,1.13,5.77,1.47,9.03,2.74,20.15,2.06,27.77-3.34,2.95,1.07,6.4,1.2,9.65.82,1.16.09,2.29.09,3.28.01,5.68-.47,12.12-2.35,16.74-6.13.19.06.39.1.59.13,2.65,2.62,6.18,3.97,9.93,4.25,7.05,5.39,17.46,3.25,23.76-3.16,7.58,3.92,17.3,3.83,25.43,1.2,5.01,1.43,10.17.77,14.18-1.69.87.41,1.88.54,2.89.26,4.59,2.49,10.3,2.02,15.05-.64,4.39,3.54,13.09,4.94,16.97,4.98,3.69.04,7.76-.54,11-2.48,3.68.83,7.8.56,11.39-.74,2.11-.24,4.29-.6,6.41-1.13,6.7.82,13.79-2.73,17.89-8.23,4.13-2.01,7.16-4.84,7.9-8.85,2.22-3.6,3.27-7.76,2.09-12.08-1.16-4.25-4.59-6.8-8.52-7.93.08-1.24-.02-2.52-.39-3.85-.57-2.06-2.96-3.64-5.09-2.89-3.26,1.15-6.67,2.81-8.25,6.09-.35.73-.57,1.46-.73,2.2-.8.08-1.6.22-2.38.42.16-.18.32-.36.47-.54,1.78-2.14,1.28-5.68-1.16-6.75,11.17-9.2,22.5-19.66,29.14-32.59.81-1.58,3.33-2.25,2.5-3.45.69-.74-1.35-2.42-.66-3.17ZM195.58,386.76c-.02-.11-.05-.21-.07-.32.11.02.22.04.34.05.14.31.28.62.43.93-.23-.22-.46-.44-.69-.66ZM382.45,431.33c-.52-.34.49,5.06-.07,4.76-.77-.42-1.56-.57-2.3-.53-.46-7.62-.7-15.27-1.61-22.78,2.54,5.88,5.23,11.65,7.46,17.29-.09.6,0,1.27.3,2,.47,1.13.93,2.26,1.37,3.4-1.34.22-4.1-4.95-5.16-4.14ZM470.03,441.9c-.09-1.06-.23-2.11-.42-3.15.51.17,1.05.23,1.59.21-.41.97-.8,1.95-1.17,2.94ZM491.89,434.57c.04.23.09.46.13.68.02.12.05.24.08.35-.42.21-.36-.38-.21-1.03ZM491.74,413.94c-1.86,5.64-1.38,11.85-.38,17.71-1.86-1.92-4.95-3.08-7.66,3.04-.02.05.21,2.24-.77,2.15.12-1.01.93-4.02,1.03-5.03.39-4.02-6.69-3.74-8.85-.84.01-1.42.04-2.84.07-4.25,1.93-3.95,3.89-7.9,6.3-11.55,1.57.46,1.97.9,3.98,1.72,6.12,2.5,7.5-12.93,6.53-17.03-1.52-6.5-14.23-4.75-18.21-1.22-4.53,4.01-5.33,11.73-6.07,17.3-.38,2.85-.59,5.81-.72,8.73-.28.58-.57,1.15-.85,1.73-.39.79-.52,1.57-.45,2.29-1.29-1.83-3.61-2.28-5.47-1.26-.01-.42-.03-.83-.03-1.25-.01-1.1-.46-2.07-1.18-2.78,1.36-3.4,2.7-6.81,4.02-10.22,3.62-9.39,7.06-18.9,9.58-28.65,1.2-4.65,3.03-11,1.79-16.12,5.05-7.42,10.02-14.9,14.55-22.68.05-.09.11-.18.16-.27-1.08,1.84-1.24,4.13-1,6.41-.26.97-.17,2.04.45,3.03,0,.61.02,1.22.05,1.81.32,7.09,1.8,14.18,3.13,21.13,1.56,8.18,3.28,16.34,4.7,24.55.38,2.23.84,4.77,1.2,7.32-2.43-.88-5.94.97-5.89,4.23ZM636.72,451.95c-.26.35-.5.72-.72,1.1-.25.03-.49.06-.74.1-.03-.31-.06-.62-.11-.93-.18-1.26,2.74-4.95,1.64-5.41.04-.03-.07-1.07-.2-2.24.53.26,1.12.38,1.71.38.36,1.26,1.38,2.02,2.59,2.28.02.08.04.17.07.25-1.49,1.42-3,2.81-4.25,4.47ZM679.88,410.82c.36-1.73.81-3.43,1.36-5.06-.39,1.7-.85,3.39-1.36,5.06Z"/>
      <polygon class="st2" points="497 352.13 497.01 352.12 497.01 352.13 497 352.13"/>
      <path class="st2" d="M516,469.5c.06.08.12.14.19.21-.06.02-.12.03-.19.05v-.26Z"/>
      <path class="st2" d="M156.79,473.28s.05-.01.07-.02c-.01.01-.03.02-.04.03-.01,0-.02,0-.03-.01Z"/>
      <path class="st2" d="M590.91,396.59c0-.05-.01-.1-.01-.15.03,0,.07,0,.1-.01-.03.06-.06.11-.09.17Z"/>
      <path class="st2" d="M494.16,443.81c-.36-.04-.76-.15-1.21-.34.4.16.8.25,1.19.28,0,.02.01.04.02.06Z"/>
      <path class="st2" d="M288.09,439.11s0-.03,0,0h0Z"/>
      <g>
        <path class="st1" d="M123.46,469.46c-10.33-3.01-20.08-8.31-28.33-15.21-2.33-1.94-4.53-4.03-6.6-6.24l-.77,1.32c11.12,2.36,21.55,7.07,31.67,12.15,2.9,1.46,5.78,2.95,8.67,4.44.9.47,1.7-.9.8-1.37-10.2-5.28-20.46-10.63-31.41-14.23-3.06-1-6.16-1.86-9.31-2.53-.77-.16-1.32.73-.77,1.32,7.53,8.07,16.93,14.48,27.08,18.8,2.79,1.19,5.64,2.22,8.55,3.07.98.29,1.4-1.24.42-1.52h0Z"/>
        <path class="st1" d="M110.45,455.33c-8.64-3.92-16.46-9.44-23.71-15.52-7.63-6.39-14.68-13.43-21.52-20.65-3.74-3.94-7.41-7.94-11.08-11.94l-.96,1.24c13.09,5.53,25.53,12.48,37.46,20.2,11.9,7.7,23.29,16.15,34.53,24.78,6.37,4.89,12.69,9.84,19.04,14.75.79.62,1.92-.5,1.12-1.12-11.33-8.77-22.58-17.66-34.15-26.12s-23.27-16.36-35.68-23.3c-6.98-3.9-14.15-7.46-21.52-10.57-.79-.34-1.61.54-.96,1.24,6.65,7.24,13.3,14.48,20.32,21.37s14.49,13.54,22.65,19.15c4.33,2.98,8.87,5.66,13.66,7.83.92.42,1.72-.94.8-1.37h0Z"/>
        <path class="st1" d="M169.31,453.76c-10.4-10.08-20.83-20.12-31.18-30.26-10.28-10.07-20.48-20.23-30.48-30.58-5.57-5.77-11.08-11.59-16.5-17.5l-.77,1.32c8.08,3.35,15.9,7.34,23.32,11.98,6.69,4.18,13.04,8.9,18.98,14.09,5.52,4.82,10.69,10.04,15.52,15.55,4.56,5.21,8.83,10.67,12.87,16.29s7.52,10.87,11.1,16.42c.43.67.86,1.33,1.29,2,.55.85,1.92.06,1.37-.8-3.59-5.59-7.24-11.15-11.08-16.58s-8.24-11.23-12.76-16.53c-4.76-5.58-9.85-10.88-15.29-15.79-5.85-5.28-12.11-10.11-18.71-14.42-7.28-4.76-14.98-8.87-22.94-12.35-1.07-.47-2.15-.93-3.23-1.37-.78-.32-1.25.8-.77,1.32,9.68,10.54,19.62,20.83,29.71,30.97s20.52,20.33,30.89,30.38c5.85,5.67,11.7,11.32,17.55,16.99.73.71,1.85-.41,1.12-1.12h0Z"/>
        <path class="st1" d="M160.61,464.11c-8.21-6.38-15.63-13.95-21.88-22.26-1.62-2.15-3.15-4.36-4.57-6.65l-.28,1.08c.12-.05-.14.02.04-.01.06-.01.13-.04.19-.06.08-.02.45-.08.28-.06.33-.04.67-.04,1.01-.02.8.05,1.65.24,2.51.47,2.36.64,4.64,1.6,6.85,2.63,5.62,2.63,11.01,5.84,16.06,9.44,2.58,1.83,5.09,3.79,7.37,5.99.73.71,1.85-.41,1.12-1.12-4.43-4.28-9.65-7.8-14.92-10.95-2.74-1.64-5.54-3.17-8.42-4.53-2.35-1.11-4.77-2.16-7.27-2.88-1.73-.5-3.88-1.06-5.61-.27-.38.17-.49.75-.28,1.08,5.42,8.73,12.37,16.6,19.94,23.52,2.18,1.99,4.43,3.9,6.75,5.7.79.62,1.92-.49,1.12-1.12h0Z"/>
        <path class="st1" d="M194.78,456.9c-4.39-5.31-8.99-10.59-12.19-16.73l-.89,1.16c7.58,3.17,14.16,8.98,19.02,15.53.6.81,1.97.02,1.37-.8-5.13-6.93-11.96-12.91-19.97-16.26-.69-.29-1.18.62-.89,1.16,3.26,6.26,7.97,11.64,12.44,17.05.65.79,1.76-.34,1.12-1.12h0Z"/>
        <path class="st1" d="M201.96,455.91c-2.32-2.76-4.05-5.88-5.32-9.25-1.39-3.7-2.43-7.53-3.71-11.27l-1.16.89c6.38,3.11,11.54,8.04,16.29,13.22,1.38,1.5,2.72,3.02,4.07,4.54.68.76,1.79-.36,1.12-1.12-4.75-5.37-9.55-10.81-15.47-14.94-1.66-1.16-3.39-2.19-5.21-3.07-.57-.28-1.4.19-1.16.89,1.32,3.85,2.38,7.79,3.83,11.59,1.35,3.52,3.17,6.74,5.6,9.63.66.78,1.77-.34,1.12-1.12h0Z"/>
        <path class="st1" d="M223.51,454.92c-5.41-5.99-10.93-12.01-15.21-18.89-1.16-1.87-2.22-3.8-3.14-5.8l-1.08,1.08c8.98,4.78,15.62,12.85,22.1,20.48,1.79,2.1,3.58,4.2,5.44,6.23.69.75,1.8-.37,1.12-1.12-6.84-7.46-12.82-15.8-20.75-22.19-2.23-1.79-4.58-3.42-7.11-4.76-.73-.39-1.41.38-1.08,1.08,3.37,7.3,8.51,13.63,13.79,19.63,1.58,1.8,3.2,3.59,4.81,5.37.68.76,1.8-.36,1.12-1.12h0Z"/>
        <path class="st1" d="M232.86,457.06c-6.55-10.45-13.27-20.8-19.65-31.36s-11.86-20.37-16.79-31.07c-2.84-6.16-5.38-12.45-7.6-18.87l-1.32.77c9.14,9.25,16.71,19.86,23.71,30.78,7.02,10.96,13.51,22.24,20.73,33.07,4.05,6.08,8.34,12.01,13.02,17.63.65.78,1.77-.34,1.12-1.12-8.37-10.05-15.4-21.09-22.24-32.21-6.8-11.05-13.44-22.22-21.15-32.66-4.32-5.84-8.96-11.45-14.07-16.62-.53-.54-1.58,0-1.32.77,3.91,11.35,8.89,22.29,14.55,32.87,5.67,10.59,11.97,20.82,18.37,30.97,3.75,5.95,7.54,11.88,11.27,17.83.54.86,1.91.07,1.37-.8h0Z"/>
        <path class="st1" d="M220.85,418.92c-1.68-12.2-3.26-24.42-4.44-36.68s-2-25.14-1.92-37.74c.04-6.74.35-13.48,1.04-20.18l-1.55.21c4.02,13.66,6,27.81,7.45,41.94,1.46,14.21,2.43,28.47,4.4,42.62,1.11,7.99,2.56,15.94,4.57,23.75.25.98,1.78.57,1.52-.42-3.6-13.97-5.34-28.32-6.72-42.65s-2.39-28.36-4.61-42.42c-1.23-7.84-2.85-15.63-5.09-23.24-.26-.9-1.46-.65-1.55.21-1.26,12.25-1.26,24.61-.67,36.89.61,12.62,1.85,25.2,3.37,37.74.82,6.81,1.73,13.6,2.67,20.39.06.43.6.65.97.55.46-.12.61-.55.55-.97h0Z"/>
        <path class="st1" d="M231.94,432.62c0-12.31,1.76-24.62,4.19-36.67,2.61-12.9,6.1-25.65,10.57-38.03,2.25-6.23,4.76-12.37,7.7-18.31l-1.47-.4c-.21,6.71-.66,13.42-1.28,20.1-.66,7.14-1.5,14.26-2.5,21.35s-2.21,14.46-3.55,21.66-2.77,14.04-4.4,21.01c-1.52,6.52-3.2,13-5.07,19.43-.22.75-.44,1.49-.66,2.24-.29.98,1.23,1.39,1.52.42,1.91-6.37,3.61-12.8,5.16-19.27,1.66-6.92,3.15-13.88,4.49-20.87s2.61-14.46,3.68-21.74,1.95-14.34,2.66-21.55c.67-6.79,1.18-13.59,1.45-20.41.03-.79.06-1.58.08-2.38s-1.12-1.11-1.47-.4c-2.61,5.27-4.88,10.7-6.95,16.21-2.28,6.09-4.3,12.28-6.1,18.54s-3.52,13.08-4.92,19.71-2.48,12.9-3.31,19.41c-.76,5.93-1.28,11.9-1.39,17.88-.01.69-.02,1.38-.02,2.06,0,1.02,1.58,1.02,1.58,0h0Z"/>
        <path class="st1" d="M246.28,457.67c1.12-4.75,3.97-8.81,6.98-12.57l-1.35-.56c0,4.97.5,9.94,0,14.91-.1,1.01,1.48,1,1.58,0,.5-4.96,0-9.94,0-14.91,0-.63-.9-1.12-1.35-.56-3.18,3.97-6.21,8.24-7.39,13.27-.23.99,1.29,1.41,1.52.42h0Z"/>
        <path class="st1" d="M257.05,458.67c.87-3.78,1.38-7.61,2.05-11.43l-1.32.35c1.36,1.32,2.65,2.73,3.79,4.25s2.36,3.36,2.68,5.34c.07.42.59.65.97.55.45-.12.62-.55.55-.97-.34-2.11-1.58-4.04-2.84-5.72s-2.58-3.15-4.04-4.57c-.39-.38-1.21-.26-1.32.35-.67,3.81-1.18,7.65-2.05,11.43-.23.99,1.3,1.41,1.52.42h0Z"/>
        <path class="st1" d="M265.8,456.97c-.28-3.01-.64-6.01-.76-9.03s-.11-5.86.74-8.65l-1.45.19c3.14,5.62,4.6,11.98,6.08,18.2.24.99,1.76.57,1.52-.42-1.51-6.35-3.03-12.83-6.24-18.57-.34-.61-1.25-.45-1.45.19-.86,2.85-.92,5.91-.8,8.86s.48,6.16.77,9.23c.09,1,1.68,1.01,1.58,0h0Z"/>
        <path class="st1" d="M267.33,322.03c2.39,8.12,4.35,16.37,5.95,24.69,1.59,8.28,2.81,16.63,3.76,25.01s1.63,16.89,2.13,25.36.8,16.97,1.01,25.46.32,16.86.42,25.29c.01,1.06.03,2.12.04,3.18s1.59,1.02,1.58,0c-.1-8.5-.2-17.01-.39-25.51s-.47-16.98-.92-25.46-1.08-16.94-1.97-25.38c-.89-8.45-2.05-16.87-3.56-25.23s-3.36-16.6-5.65-24.75c-.29-1.03-.58-2.05-.88-3.07s-1.81-.56-1.52.42h0Z"/>
        <path class="st1" d="M276.58,449.02c-1.39-10.33-3.47-20.53-5.53-30.74-2.05-10.18-4.05-20.39-5.21-30.72-.67-5.99-1.06-12.01-1.06-18.03h-1.58c1.3,10.9,3.22,21.7,5.61,32.41s4.91,20.28,7.42,30.4c1.55,6.28,3.05,12.57,4.44,18.88.22.99,1.74.57,1.52-.42-2.38-10.82-5.12-21.55-7.8-32.3-2.5-10.01-4.9-20.04-6.76-30.19-1.15-6.23-2.1-12.49-2.85-18.78-.12-.98-1.58-1.05-1.58,0,0,10.55,1.22,21.05,2.97,31.45s3.95,20.34,5.9,30.51c1.11,5.82,2.14,11.66,2.93,17.54.06.43.32.79.79.79.38,0,.85-.37.79-.79h0Z"/>
        <path class="st1" d="M301.4,453.08c.59-10.21-.72-20.4-2.14-30.49s-3.09-20.78-3.22-31.29c-.07-6.07.37-12.14,1.55-18.09h-1.52c2.69,9.01,3.93,18.35,4.66,27.7s1,18.68,1.84,27.99c.47,5.24,1.13,10.47,2.13,15.64.19,1,1.72.58,1.52-.42-1.79-9.23-2.43-18.62-2.97-27.98s-.98-18.65-2.33-27.89c-.76-5.22-1.83-10.4-3.34-15.46-.21-.7-1.37-.8-1.52,0-2.09,10.56-1.87,21.35-.74,32.01,1.1,10.4,3.01,20.7,4.02,31.11.55,5.7.82,11.44.48,17.17-.06,1.02,1.52,1.01,1.58,0h0Z"/>
        <path class="st1" d="M305.31,453.98c.76-5.94,1.81-11.84,3.09-17.68,1.41-6.46,3.1-12.86,5.07-19.16s4.34-12.86,7.04-19.09,5.56-11.88,8.99-17.46c3.18-5.16,6.78-10.09,10.99-14.46.5-.52,1-1.02,1.52-1.52l-1.32-.77c-1.39,6.48-3.42,12.81-5.83,18.98s-5.1,12.05-7.86,17.99-5.45,11.7-7.91,17.67-4.59,11.97-6.11,18.19-2.46,13.02-2.45,19.64c0,.85.02,1.71.05,2.56.03,1.01,1.62,1.02,1.58,0-.22-6.63.44-13.24,1.87-19.72s3.41-12.29,5.76-18.21,5.09-11.82,7.8-17.66c2.73-5.88,5.45-11.76,7.89-17.77s4.64-12.38,6.18-18.81c.19-.81.38-1.63.55-2.45.16-.76-.73-1.34-1.32-.77-4.35,4.23-8.1,9.06-11.39,14.15-3.59,5.53-6.66,11.39-9.37,17.39s-5.26,12.66-7.38,19.17-3.88,12.93-5.39,19.5c-1.37,5.99-2.51,12.04-3.35,18.14-.1.71-.19,1.43-.28,2.14-.05.43.4.79.79.79.47,0,.74-.37.79-.79h0Z"/>
        <path class="st1" d="M316.05,458.67c.88-5.87,2.67-11.6,4.64-17.18,2.4-6.8,5.2-13.45,8.21-20s6.28-13.07,9.76-19.43c2.9-5.31,5.94-10.56,9.33-15.57,1.21-1.79,2.44-3.53,3.78-5.14.52-.62,1.05-1.23,1.62-1.8.23-.23.47-.46.72-.67.11-.09.21-.18.33-.27-.18.14.13-.09.2-.14.18-.12.36-.23.56-.32l-1.08-1.08c-4.82,9.17-9.62,18.35-14.08,27.69-4.11,8.62-7.89,17.39-11.26,26.33-2.15,5.69-4.14,11.44-6.03,17.22-.32.97,1.21,1.39,1.52.42,3.19-9.78,6.69-19.45,10.7-28.92,3.71-8.77,7.84-17.35,12.15-25.84,2.74-5.39,5.54-10.75,8.36-16.1.39-.73-.37-1.41-1.08-1.08-1.12.52-2.05,1.52-2.86,2.42-1.37,1.51-2.59,3.15-3.76,4.81-3.35,4.74-6.31,9.75-9.14,14.81-3.55,6.34-6.86,12.81-9.95,19.39s-6.04,13.4-8.59,20.28c-2.15,5.81-4.11,11.76-5.25,17.87-.12.63-.22,1.25-.32,1.88-.06.43.11.84.55.97.37.11.91-.13.97-.55h0Z"/>
        <path class="st1" d="M324.18,448.92c4.22-8.59,7.87-17.46,12.11-26.04s9.21-17.29,15.78-24.51c3.62-3.98,7.74-7.5,12.36-10.28l-1.16-.89c-3.27,10.04-8.74,19.18-14.56,27.93-6,9.01-12.48,17.72-18.01,27.04-3.06,5.15-5.8,10.49-7.96,16.08-.37.95,1.16,1.36,1.52.42,3.86-10,9.66-19.1,15.67-27.93,6.06-8.9,12.45-17.62,17.69-27.04,2.86-5.13,5.35-10.49,7.17-16.08.22-.66-.59-1.24-1.16-.89-8.41,5.06-15.04,12.44-20.39,20.58-5.44,8.29-9.64,17.31-13.72,26.32-2.2,4.85-4.36,9.72-6.7,14.49-.45.91.92,1.71,1.37.8h0Z"/>
        <path class="st1" d="M312.49,459.45c-.5-7,.47-14.12,3.05-20.66l-1.55-.21c.52,6.61.51,13.25.51,19.88,0,1.02,1.58,1.02,1.58,0,0-6.63,0-13.26-.51-19.88-.07-.91-1.23-1.04-1.55-.21-2.62,6.65-3.61,13.96-3.11,21.08.07,1.01,1.65,1.02,1.58,0h0Z"/>
        <path class="st1" d="M282.15,449.76c.22-3.91.46-7.98,1.63-11.74.31-.99.66-1.87,1.25-2.74.06-.09.12-.18.19-.26-.02.03.03-.04.11-.14.13-.15.26-.29.4-.43.12-.12.24-.22.37-.33.1-.08.15-.12.1-.08.07-.05.14-.1.22-.16.65-.45,1.37-.77,2.09-1.08l-.96-.12c3.51,3.14,3.85,8.3,4.35,12.68.23,2.02.44,4.04.69,6.05.12,1,1.7,1.01,1.58,0-.41-3.42-.7-6.87-1.23-10.28-.36-2.32-.86-4.69-2.01-6.77-.59-1.05-1.35-2.01-2.25-2.81-.29-.26-.62-.27-.96-.12-1.48.65-2.82,1.41-3.81,2.73-1.56,2.09-2.11,4.87-2.51,7.38-.43,2.72-.65,5.47-.81,8.21-.06,1.02,1.52,1.01,1.58,0h0Z"/>
        <path class="st1" d="M294.13,451.21c-.47-2.82-.23-5.83.51-8.58.3-1.11.69-2.23,1.31-3.2.19-.3.44-.62.71-.83s.39-.24.67-.22l-.76-.58c.84,2.65,1.58,5.33,2.13,8.05s.93,5.37,1.36,8.05c.16,1,1.68.58,1.52-.42-.43-2.69-.82-5.38-1.36-8.05s-1.29-5.4-2.13-8.05c-.11-.35-.4-.56-.76-.58-2.38-.14-3.55,3.15-4.08,4.93-.95,3.17-1.19,6.64-.65,9.9.17,1,1.69.58,1.52-.42h0Z"/>
        <path class="st1" d="M327.88,457.46c.22-1.69.54-3.46,1.3-5s1.89-2.6,3.44-3.26l-1.16-.47c.69,1.81,1,3.72.75,5.65-.26,2.05-1.11,3.94-2.21,5.67-.55.86.82,1.65,1.37.8,2.43-3.81,3.24-8.24,1.62-12.53-.2-.52-.66-.69-1.16-.47-3.9,1.67-5.02,5.77-5.52,9.63-.06.43.4.79.79.79.47,0,.74-.37.79-.79h0Z"/>
        <path class="st1" d="M337.63,457.46c-.46-4.55-.16-9.37,1.94-13.51l-1.45-.19c1.09,4.79,1.5,9.79,1.51,14.7,0,1.02,1.58,1.02,1.58,0,0-5.05-.45-10.19-1.57-15.12-.15-.65-1.14-.79-1.45-.19-2.23,4.4-2.64,9.47-2.16,14.31.1,1,1.68,1.01,1.58,0h0Z"/>
        <path class="st1" d="M341.19,458.67c.24-1.45.25-2.93.49-4.38.21-1.24.59-2.43,1.72-3.1l-1.16-.47c1,2.47,1,5.11,1,7.74,0,1.02,1.58,1.02,1.58,0,0-2.75,0-5.57-1.05-8.16-.19-.46-.68-.76-1.16-.47-2.94,1.76-2.44,5.51-2.93,8.42-.07.42.11.85.55.97.38.1.9-.13.97-.55h0Z"/>
        <path class="st1" d="M334.01,458.67c.04-.12.08-.24.13-.36.01-.03.09-.23.05-.12-.04.1,0,.01,0,0,.01-.03.03-.06.04-.1.08-.17.17-.34.28-.5.02-.04.05-.07.08-.11-.04.06-.12.14-.03.05.05-.05.1-.09.15-.15.03-.03-.18.12-.07.05.02-.01.05-.03.07-.04.11-.07-.19.06-.08.03.03,0,.06-.01.08-.02.11-.03-.14,0-.12.02.02,0,.05,0,.07,0,.11,0-.14-.03-.11-.02.03.01.06.01.09.02.04.01.15.06,0,0s-.04-.02,0,0c.06.03.11.07.17.1.1.06-.15-.13-.06-.04.03.02.05.04.08.07.06.06.13.12.19.18.06.06.11.12.16.18.03.03.06.07.08.1.02.03.13.17.05.06s.05.06.07.09c.03.05.07.09.1.14.07.1.14.2.21.31.16.24.32.49.47.74.22.35.72.52,1.08.28s.52-.71.28-1.08c-.53-.86-1.09-1.79-1.92-2.39-.33-.24-.75-.37-1.16-.32-.43.06-.8.3-1.07.64-.42.52-.67,1.14-.89,1.77-.14.39.15.88.55.97.44.1.83-.13.97-.55h0Z"/>
        <path class="st1" d="M344.78,458.67c1.09-3.76,2.59-7.4,4.39-10.88,1.87-3.61,4.05-7.09,6.7-10.18,1.34-1.57,2.81-3.05,4.45-4.31l-1.19-.68c.8,7.71-2.57,15.3-6.55,21.7-1.12,1.8-2.33,3.54-3.6,5.23-.61.81.76,1.6,1.37.8,4.7-6.23,8.89-13.47,10.13-21.28.34-2.14.46-4.29.23-6.45-.05-.52-.66-1.09-1.19-.68-3.16,2.43-5.75,5.5-7.99,8.79-2.39,3.51-4.38,7.28-6.02,11.2-.87,2.07-1.63,4.17-2.25,6.33-.28.98,1.24,1.4,1.52.42h0Z"/>
        <path class="st1" d="M363.28,455.97c-.42-7.11.04-14.7,2.69-21.39.69-1.73,1.57-3.42,2.72-4.89l-1.32-.35c2.05,8.55,1.52,17.41,1.51,26.12,0,1.02,1.58,1.02,1.58,0,0-8.86.52-17.86-1.57-26.54-.13-.53-.95-.82-1.32-.35-2.23,2.84-3.57,6.24-4.45,9.72-.95,3.77-1.39,7.68-1.51,11.56-.07,2.04-.04,4.08.08,6.11.06,1.01,1.64,1.02,1.58,0h0Z"/>
        <path class="st1" d="M375.08,453.98c-.22-8.53-1.58-16.98-2.84-25.4s-2.51-17.1-2.42-25.73c.05-4.8.54-9.58,1.65-14.25l-1.45.19c3.95,7.87,5.79,16.57,6.89,25.25s1.53,17.48,2.75,26.17c.69,4.89,1.64,9.75,3.11,14.47.3.97,1.83.56,1.52-.42-2.62-8.45-3.57-17.28-4.38-26.05s-1.48-17.67-3.54-26.28c-1.15-4.81-2.77-9.51-4.99-13.94-.3-.61-1.29-.45-1.45.19-2,8.39-2,17.08-1.2,25.62s2.39,17.21,3.52,25.83c.63,4.76,1.12,9.54,1.24,14.34.03,1.02,1.61,1.02,1.58,0h0Z"/>
        <path class="st1" d="M393.83,455.41c-2.63-2.56-4.86-5.52-6.69-8.69s-3.38-6.74-3.8-10.43c-.21-1.83-.13-3.68.43-5.45l-1.32.35c5.33,5.19,8.48,12.1,12.01,18.54,1.01,1.83,2.05,3.65,3.18,5.4.55.85,1.92.06,1.37-.8-4.08-6.35-6.96-13.42-11.4-19.54-1.22-1.68-2.55-3.27-4.03-4.72-.44-.43-1.14-.22-1.32.35-1.1,3.49-.54,7.29.6,10.69,1.28,3.82,3.3,7.4,5.7,10.62,1.27,1.7,2.64,3.32,4.16,4.8.73.71,1.85-.41,1.12-1.12h0Z"/>
        <path class="st1" d="M399.59,454.58c-1.79-3.68-3.61-7.35-5.11-11.16-1.51-3.83-2.83-7.9-2.97-12.04-.07-2.06.19-4.1.99-6l-1.45.19c4.88,6.35,6.78,14.32,8.34,22.01.45,2.2.87,4.41,1.33,6.62.21,1,1.73.57,1.52-.42-1.62-7.88-2.84-16-6.36-23.32-.96-2.01-2.11-3.92-3.47-5.69-.44-.57-1.17-.47-1.45.19-1.54,3.68-1.18,7.87-.31,11.68.99,4.34,2.73,8.5,4.59,12.53.96,2.09,1.98,4.15,2.98,6.21.44.91,1.81.11,1.37-.8h0Z"/>
        <path class="st1" d="M402.27,453.98c.49-4.17.02-8.35-.24-12.51-.24-3.81-.39-7.86,1.16-11.43l-1.45-.19c2.56,8.57.52,17.76,3.08,26.33.29.97,1.82.56,1.52-.42-2.56-8.57-.51-17.76-3.08-26.33-.18-.59-1.16-.85-1.45-.19-1.62,3.73-1.64,7.8-1.4,11.79.26,4.31.78,8.64.27,12.95-.12,1.01,1.46,1,1.58,0h0Z"/>
        <path class="st1" d="M405.08,447.7c1.69-11.36,5.21-22.56,10.56-32.73,1.5-2.85,3.16-5.62,4.98-8.28l-1.47-.4c.38,12.6-4.25,24.59-7.43,36.59-.91,3.43-1.72,6.89-2.29,10.4-.16,1,1.36,1.42,1.52.42,2.04-12.54,7.12-24.35,9.06-36.91.54-3.47.82-6.98.72-10.5-.02-.81-1.04-1.04-1.47-.4-6.6,9.61-11.1,20.69-13.86,31.99-.76,3.1-1.38,6.24-1.85,9.4-.06.43.11.84.55.97.37.11.91-.13.97-.55h0Z"/>
        <path class="st1" d="M410.88,453.89c4.06-5.9,8.22-12.47,14.59-16.11l-1.16-.89c-2.14,6.63-7.14,11.83-10.69,17.7-.53.87.84,1.67,1.37.8,3.63-6,8.66-11.29,10.85-18.08.22-.67-.58-1.22-1.16-.89-6.62,3.78-10.95,10.55-15.16,16.68-.58.84.79,1.63,1.37.8h0Z"/>
        <path class="st1" d="M417.09,452.39c4.66-4.99,10.71-9.03,17.43-10.56l-.89-1.16c-2.72,6.21-8.94,9.93-14.59,13.13-.89.5-.09,1.87.8,1.37,5.87-3.32,12.34-7.26,15.16-13.7.27-.62-.17-1.32-.89-1.16-6.97,1.59-13.29,5.79-18.13,10.97-.69.74.42,1.86,1.12,1.12h0Z"/>
        <path class="st1" d="M433.05,456.47c-.21-1.86-.52-3.78-.3-5.66.21-1.71,1.07-3.1,2.47-4.09l-1.08-.28c2.08,4.08,2.96,8.96,2.46,13.51-.11,1.01,1.47,1,1.58,0,.53-4.83-.47-9.99-2.67-14.31-.18-.36-.75-.52-1.08-.28-1.66,1.17-2.82,2.77-3.16,4.79s-.04,4.23.21,6.32c.12,1,1.7,1.01,1.58,0h0Z"/>
        <path class="st1" d="M459.1,451.6c-1.58-2.66-2.48-5.7-3.06-8.72-.65-3.45-.85-7.01-.52-10.5.17-1.87.53-3.72,1.1-5.51h-1.52c2.95,7.01,3.44,14.76,5.24,22.09.52,2.12,1.14,4.21,1.95,6.23.37.93,1.9.53,1.52-.42-2.85-7.16-3.37-14.93-5.24-22.35-.51-2.03-1.13-4.04-1.95-5.97-.29-.69-1.27-.8-1.52,0-1.08,3.38-1.4,7-1.28,10.54s.69,7.21,1.8,10.62c.54,1.66,1.22,3.29,2.12,4.79.52.87,1.89.08,1.37-.8h0Z"/>
        <path class="st1" d="M465.88,452.49c0-1.93.07-3.88.65-5.73s1.74-3.39,3.22-4.64l-1.24-.16c2.08,4.09,2.35,8.86,1.46,13.3-.2.99,1.32,1.42,1.52.42.99-4.88.66-10.04-1.62-14.52-.25-.49-.88-.47-1.24-.16-1.65,1.39-2.9,3.12-3.58,5.18s-.75,4.2-.76,6.31c0,1.02,1.58,1.02,1.58,0h0Z"/>
        <path class="st1" d="M461.8,447.48c-.55-3.26-.6-6.62-.27-9.9s1.08-6.63,2.7-9.53l-1.45-.19c2.52,6.97,1,14.44,1.51,21.65.07,1.01,1.65,1.02,1.58,0-.52-7.35,1.01-14.96-1.57-22.07-.22-.61-1.09-.82-1.45-.19-1.72,3.1-2.52,6.64-2.89,10.14s-.28,7.05.3,10.51c.17,1,1.69.58,1.52-.42h0Z"/>
        <path class="st1" d="M471.35,445c0-1.99.08-4.01.68-5.92.54-1.72,1.57-3.17,2.85-4.42l-1.32-.35c.92,3.53,2.12,7.01,1.21,10.68-.25.99,1.28,1.41,1.52.42.48-1.92.51-3.84.2-5.78s-.91-3.83-1.4-5.74c-.15-.58-.9-.76-1.32-.35-1.44,1.41-2.58,3.06-3.22,4.98-.68,2.07-.77,4.31-.78,6.47,0,1.02,1.58,1.02,1.58,0h0Z"/>
        <path class="st1" d="M476.14,452.99c-.38-6.47.88-13.44,4.66-18.83,1.02-1.45,2.25-2.77,3.67-3.84l-1.19-.68c-.04,7.73-3.83,14.89-6.1,22.12-.67,2.13-1.22,4.29-1.57,6.49-.16,1,1.37,1.42,1.52.42,1.25-7.87,5.18-14.96,6.94-22.69.47-2.08.77-4.21.78-6.34,0-.55-.7-1.06-1.19-.68-5.63,4.24-8.23,11.27-8.97,18.07-.21,1.98-.26,3.98-.14,5.96.06,1.01,1.64,1.02,1.58,0h0Z"/>
        <path class="st1" d="M480.64,447.28c1.96-5.62,6.14-10.84,11.53-13.48l-1.16-.89c-1.32,8.32-6.48,15.42-8.26,23.62-.49,2.26-.71,4.59-.49,6.9.09,1,1.68,1.01,1.58,0-.78-8.39,4.08-16,6.89-23.57.79-2.12,1.45-4.29,1.8-6.53.11-.69-.51-1.21-1.16-.89-5.76,2.83-10.16,8.44-12.25,14.43-.34.96,1.19,1.38,1.52.42h0Z"/>
        <path class="st1" d="M495.61,452.28c-1.15-3.39-1.78-6.96-1.96-10.53s.1-7.45,1.45-10.91l-1.45.19c1.54,3.28,2.14,6.91,2.56,10.48s.71,7.5,1.46,11.19c.2,1,1.73.57,1.52-.42-1.49-7.31-.95-15.16-4.18-22.05-.32-.68-1.22-.38-1.45.19-1.39,3.57-1.69,7.53-1.5,11.33s.82,7.44,2.02,10.95c.33.96,1.85.55,1.52-.42h0Z"/>
        <path class="st1" d="M504.33,458.25c-2.02-12.8-6.17-25.27-6.93-38.26-.21-3.58-.14-7.17.29-10.72l-1.47.4c6.17,11.2,7.91,24.21,9.91,36.65.56,3.46,1.13,6.92,1.81,10.36.2,1,1.72.58,1.52-.42-2.5-12.53-3.5-25.44-7.63-37.6-1.14-3.37-2.53-6.66-4.25-9.78-.42-.75-1.39-.32-1.47.4-1.59,12.99,1.83,25.85,4.58,38.44.79,3.63,1.54,7.28,2.12,10.96.16,1,1.68.58,1.52-.42h0Z"/>
        <path class="st1" d="M508.17,448.52c.35-1.65.85-3.33,2.21-4.43s2.99-1.63,4.47-2.35l-1.16-.89c-1.96,4.79-2.97,9.97-5.92,14.3-.57.84.8,1.64,1.37.8,3.03-4.45,4.07-9.77,6.08-14.68.29-.7-.61-1.16-1.16-.89-1.66.8-3.47,1.45-4.88,2.66-1.49,1.28-2.13,3.19-2.53,5.05-.21.99,1.31,1.42,1.52.42h0Z"/>
        <path class="st1" d="M440.06,392.04c-1.48-12.11-3.21-24.2-5.44-36.2-1.08-5.83-2.35-11.61-3.58-17.41s-2.31-11.38-2.77-17.16c-.51-6.42-.2-12.92,1.68-19.11h-1.52c4.64,11.93,7.1,24.54,8.95,37.16.96,6.49,1.78,13,2.65,19.49s1.74,13.17,2.41,19.78c.76,7.5,1.27,15.03,1.3,22.58,0,1.02,1.59,1.02,1.58,0-.05-13.46-1.65-26.84-3.42-40.16s-3.17-25.83-5.89-38.54c-1.51-7.05-3.45-14.01-6.06-20.73-.27-.7-1.28-.79-1.52,0-3.38,11.16-1.79,22.97.49,34.18,1.18,5.82,2.52,11.62,3.64,17.45s2.19,12.06,3.13,18.11c1.05,6.84,1.97,13.69,2.81,20.56.05.43.33.79.79.79.39,0,.84-.37.79-.79h0Z"/>
        <path class="st1" d="M516.48,458.25c1.21-12.7.14-25.47-.71-38.15-.24-3.61-.47-7.22-.64-10.83l-1.55.21c3.61,14.43,4.98,29.3,6.17,44.09.33,4.11.64,8.23.99,12.34.08,1.01,1.67,1.02,1.58,0-1.24-14.86-2.12-29.79-4.64-44.51-.71-4.14-1.55-8.26-2.57-12.34-.21-.85-1.59-.69-1.55.21.58,12.78,2.01,25.54,1.88,38.34-.03,3.55-.2,7.1-.53,10.64-.1,1.01,1.49,1.01,1.58,0h0Z"/>
        <path class="st1" d="M524.36,459.45c-1.21-10.58-2.09-21.19-2.66-31.82-.16-2.97-.3-5.95-.41-8.93l-1.35.56c4.59,4.28,6.25,10.68,7.06,16.7.89,6.59.79,13.26,1.35,19.88.26,3.12.63,6.3,1.65,9.28.33.96,1.85.55,1.52-.42-.89-2.61-1.27-5.37-1.53-8.11-.3-3.28-.42-6.58-.57-9.87-.31-6.66-.63-13.58-2.91-19.9-1.17-3.25-2.91-6.29-5.45-8.67-.48-.45-1.38-.15-1.35.56.41,10.62,1.11,21.24,2.14,31.82.29,2.98.6,5.95.94,8.93.11,1,1.7,1.01,1.58,0h0Z"/>
        <path class="st1" d="M528.9,437.76c-.22-3.77-.18-7.59.59-11.3.72-3.51,2.09-6.8,4-9.83l-1.45-.19c1.43,6.41.94,13.06.28,19.54s-1.6,13.07-1.25,19.64c.19,3.57.78,7.13,2,10.5.34.95,1.87.54,1.52-.42-2.23-6.15-2.25-12.74-1.75-19.19s1.57-13.14,1.69-19.75c.06-3.61-.18-7.22-.96-10.75-.15-.69-1.1-.74-1.45-.19-1.98,3.13-3.41,6.58-4.16,10.21-.79,3.85-.88,7.81-.65,11.72.06,1.01,1.64,1.02,1.58,0h0Z"/>
        <path class="st1" d="M533.42,440.45c.79-2.1,1.43-4.25,2.23-6.35.75-1.98,1.78-3.81,2.97-5.56l-1.47-.4c1.01,8.69-2.18,17.11-5.1,25.13-.35.96,1.18,1.37,1.52.42,2.97-8.14,6.19-16.73,5.16-25.55-.09-.77-1.01-1.08-1.47-.4-1.25,1.82-2.29,3.73-3.08,5.79s-1.48,4.34-2.28,6.49c-.36.95,1.17,1.37,1.52.42h0Z"/>
        <path class="st1" d="M533.63,452.87c1.65-4.33,3.59-8.55,5.84-12.6,2.42-4.35,5.21-8.61,8.78-12.11,1.77-1.73,3.74-3.25,5.99-4.3l-1.16-.89c-3.28,11.03-10.1,20.55-13.83,31.4-1.01,2.94-1.75,5.97-2.1,9.06-.11,1.01,1.47,1,1.58,0,.63-5.5,2.64-10.74,4.95-15.73s5.13-10.1,7.46-15.26c1.33-2.94,2.54-5.94,3.46-9.04.21-.71-.57-1.17-1.16-.89-4.33,2.01-7.72,5.69-10.54,9.46-3.11,4.17-5.64,8.76-7.83,13.46-1.07,2.31-2.07,4.65-2.97,7.03-.36.95,1.17,1.36,1.52.42h0Z"/>
        <path class="st1" d="M543.86,454.98c.02-5.35,1.88-11.36,6.28-14.72l-1.16-.47c.9,2.62,1.63,5.32,1.9,8.09s.1,5.42-.35,8.09c-.17,1,1.35,1.42,1.52.42.48-2.82.68-5.66.4-8.51s-1.02-5.75-1.96-8.51c-.15-.43-.73-.8-1.16-.47-4.88,3.73-7.04,10.11-7.06,16.09,0,1.02,1.58,1.02,1.58,0h0Z"/>
        <path class="st1" d="M552.07,456.97c-.2-4.2,1.09-8.36,2.85-12.13,1.96-4.19,4.57-8.08,7.54-11.62,1.64-1.95,3.4-3.79,5.28-5.5l-1.32-.77c-1.67,8.73-7.69,15.71-11.33,23.61-1.07,2.31-1.95,4.71-2.52,7.19-.23.99,1.3,1.41,1.52.42,2.01-8.79,7.99-15.76,11.59-23.87.99-2.23,1.8-4.54,2.26-6.94.15-.77-.72-1.32-1.32-.77-3.49,3.18-6.59,6.82-9.23,10.74s-4.84,8.12-6.06,12.65c-.61,2.27-.95,4.63-.84,6.98.05,1.01,1.63,1.02,1.58,0h0Z"/>
        <path class="st1" d="M560.17,456.87c2.47-4.77,5.51-9.25,9.62-12.76l-1.32-.77c-1.03,5.44-2.98,10.63-4.62,15.9-.3.97,1.22,1.39,1.52.42,1.64-5.27,3.58-10.46,4.62-15.9.15-.79-.71-1.29-1.32-.77-4.2,3.59-7.34,8.2-9.87,13.08-.47.9.9,1.7,1.37.8h0Z"/>
        <path class="st1" d="M574.02,457.06c-1.91-4.21-2.99-9.21-1.97-13.8l-1.16.47c5.66,4.04,7.45,11.5,8.87,17.91.22.99,1.74.57,1.52-.42-1.53-6.89-3.54-14.53-9.6-18.86-.41-.29-1.06,0-1.16.47-1.12,5.03.03,10.4,2.13,15.02.42.93,1.78.12,1.37-.8h0Z"/>
        <path class="st1" d="M582.31,454.77c-2.12-8.74-4.57-17.56-4.59-26.62l-1.47.4c4.57,6.88,7.19,14.92,8.94,22.93.48,2.22.89,4.45,1.24,6.69.16,1,1.68.58,1.52-.42-1.28-8.22-3.35-16.44-6.95-23.98-.99-2.08-2.12-4.1-3.39-6.02-.42-.63-1.48-.42-1.47.4.02,9.2,2.49,18.17,4.64,27.04.24.99,1.77.57,1.52-.42h0Z"/>
        <path class="st1" d="M589.76,423.27c-.8-7.9-1.78-15.78-2.77-23.66-1.12-8.93-2.28-17.86-3.36-26.79s-2.02-17.09-2.77-25.66c-.59-6.71-1.12-13.46-1.02-20.2.02-1.25.06-2.5.16-3.75.04-.54.09-1.07.15-1.6.03-.28.05-.4.07-.53.04-.25.08-.51.12-.76.14-.77.31-1.55.58-2.29.03-.08.06-.15.09-.23.08-.21-.06.13.03-.07.06-.13.13-.27.2-.39.07-.12.14-.23.21-.34.08-.13.05-.06,0,0,.04-.05.08-.1.13-.15.08-.08.16-.16.25-.23-.23.2.05-.02.13-.07l-1.16-.47c1.99,13.72,4.16,27.41,6.25,41.11s4.11,27.48,5.78,41.27c.93,7.71,1.75,15.43,2.41,23.17.09,1.01,1.67,1.02,1.58,0-1.18-13.88-2.88-27.71-4.8-41.5-1.92-13.79-4.08-27.54-6.2-41.3-1.19-7.71-2.37-15.43-3.49-23.16-.08-.53-.76-.69-1.16-.47-1.15.62-1.68,2.05-2.01,3.23-.54,1.98-.7,4.07-.8,6.11-.32,6.38.14,12.81.65,19.17.67,8.45,1.61,16.87,2.6,25.29,1.07,9.08,2.24,18.15,3.39,27.22,1.03,8.14,2.06,16.29,2.93,24.45.09.87.18,1.75.27,2.62.1,1,1.68,1.01,1.58,0h0Z"/>
        <path class="st1" d="M584.76,442.93c-1.72-9.3-5.45-18.12-9.09-26.81-3.49-8.32-7.32-16.72-9.19-25.59-.84-3.98-1.24-8.17-.35-12.18l-1.45.19c2.67,5.04,5.19,10.16,7.71,15.27,2.72,5.53,5.51,11.02,8.43,16.44,2.43,4.5,4.92,8.97,7.46,13.41.5.88,1.87.09,1.37-.8-4.03-7.06-7.96-14.17-11.66-21.4-2.5-4.88-4.88-9.82-7.32-14.72-1.5-3.02-3.04-6.02-4.62-9-.31-.59-1.3-.47-1.45.19-1.75,7.81.78,16.08,3.42,23.4,3.27,9.06,7.42,17.77,10.78,26.8,1.84,4.96,3.47,10.02,4.44,15.22.19,1,1.71.58,1.52-.42h0Z"/>
        <path class="st1" d="M596.8,421.61c-.2-8.7-.18-17.41.46-26.09s1.89-17.2,4.17-25.55c1.3-4.77,2.92-9.45,4.92-13.97l-1.45-.19c1.82,6.87,3.2,13.87,3.69,20.96.37,5.36.22,10.73-.44,16.06-.57,4.59-1.51,9.11-2.43,13.63s-1.86,9.4-2.38,14.17c-.62,5.64-.68,11.33-.23,16.98.06.82.14,1.63.22,2.44.1,1,1.69,1.01,1.58,0-.6-5.85-.7-11.74-.17-17.6.43-4.79,1.28-9.51,2.23-14.22s1.91-9.14,2.55-13.76c.73-5.22,1.02-10.49.77-15.76-.32-6.88-1.48-13.7-3.11-20.38-.24-.99-.5-1.98-.76-2.97-.16-.61-1.16-.83-1.45-.19-3.57,8.09-6,16.62-7.5,25.33-1.49,8.63-2.13,17.39-2.31,26.15-.1,4.98-.06,9.95.05,14.93.02,1.02,1.6,1.02,1.58,0h0Z"/>
        <path class="st1" d="M604.8,440.47c5.76-11.97,10.99-24.47,19.16-35.06,2.22-2.88,4.68-5.58,7.39-8l-1.35-.56c-.02,9.02-3.46,17.59-7.19,25.66-3.97,8.59-8.47,17-11.27,26.07-1.58,5.13-2.57,10.46-2.58,15.84,0,1.02,1.58,1.02,1.58,0,.02-9.62,3.28-18.78,7.19-27.44,3.82-8.48,8.36-16.69,11.27-25.56,1.55-4.7,2.57-9.61,2.58-14.58,0-.71-.85-1-1.35-.56-4.91,4.38-8.93,9.66-12.4,15.22s-6.65,11.89-9.59,18.03c-1.61,3.38-3.19,6.77-4.81,10.14-.44.91.92,1.72,1.37.8h0Z"/>
        <path class="st1" d="M615.14,462.72c-1.36-4.9-1.22-10.61,1.97-14.79h-1.37c2.04,4.5,2.94,9.58,2.46,14.51-.1,1.01,1.48,1,1.58,0,.52-5.21-.51-10.56-2.67-15.3-.27-.6-1.05-.42-1.37,0-3.43,4.5-3.59,10.75-2.13,16.01.27.98,1.8.56,1.52-.42h0Z"/>
        <path class="st1" d="M622.35,455.48c-.21-1.6-.54-3.27-.34-4.88.18-1.45,1.03-2.58,2.16-3.51h-1.12c.97.76,1.48,1.65,1.58,2.8.12,1.44.06,2.87.27,4.3.06.42.6.65.97.55.45-.12.61-.55.55-.97-.2-1.44-.07-2.89-.26-4.32s-.87-2.59-2-3.48c-.36-.29-.75-.3-1.12,0-1.32,1.08-2.31,2.49-2.57,4.21s.06,3.54.29,5.29c.05.42.32.79.79.79.38,0,.85-.36.79-.79h0Z"/>
        <path class="st1" d="M630.02,454.27c-.91-5.43.84-12.5,6.63-14.43l-.97-.55c2,6.98-1.21,14-3.59,20.45-.35.96,1.17,1.37,1.52.42,2.49-6.75,5.68-13.99,3.59-21.29-.11-.39-.56-.69-.97-.55-6.69,2.22-8.79,10.05-7.73,16.38.17,1,1.69.58,1.52-.42h0Z"/>
        <path class="st1" d="M640.3,454.98c0-1.27-.29-2.51-.36-3.77-.02-.3-.02-.61,0-.91,0-.07.01-.15.02-.22.01-.16,0,0,0-.04.02-.15.05-.29.09-.44.02-.05.03-.11.05-.16,0-.03.02-.05.03-.08.04-.1-.07.13-.01.04.03-.05.05-.1.08-.14.02-.04.14-.21.07-.12s.04-.04.06-.06c.05-.05.09-.09.14-.13.1-.1-.11.06.02-.01.07-.04.13-.08.2-.12.09-.05-.1.02.1-.04.07-.02.15-.05.22-.06.06-.01.26-.05.21-.04s.16-.01.21-.01c.5-.02.98.04,1.47.13l-.35-.2c1.54,1.49,3.11,2.98,4.12,4.89.47.9,1.84.1,1.37-.8-.85-1.62-2.09-2.98-3.38-4.26-.29-.29-.58-.59-.89-.86-.4-.36-.9-.39-1.41-.44-.6-.07-1.21-.06-1.79.08-2.13.53-2.32,2.79-2.14,4.62.1,1.06.31,2.11.31,3.17s1.59,1.02,1.58,0h0Z"/>
        <path class="st1" d="M650.54,449.3c-.32-1.63-.58-3.45-.05-5,.01-.03.07-.19.02-.05.03-.06.06-.13.09-.19.05-.1.11-.19.17-.29.02-.03.15-.19.03-.04.04-.05.08-.09.12-.14.04-.03.07-.07.11-.1.14-.14-.08.05.04-.04.09-.06.18-.11.27-.16.1-.05-.18.06,0,0,.05-.02.11-.04.16-.05.09-.03.19-.04.28-.06-.22.03.19,0,.27,0,.05,0,.37.04.17,0,.12.02.24.04.36.07.12.03.25.07.37.11.07.02.14.05.2.07.03.01.22.09.09.03.58.25,1.13.6,1.63.98,1.06.81,2.09,1.98,2.87,3.15,1.02,1.55,1.74,3.26,2.06,5.08.18,1,1.7.58,1.52-.42-.61-3.47-2.65-6.84-5.43-9-1.09-.85-2.37-1.59-3.78-1.66-1.23-.06-2.36.6-2.9,1.71-.96,1.94-.59,4.37-.19,6.4.19,1,1.72.58,1.52-.42h0Z"/>
        <path class="st1" d="M445.29,401.38c2.46-12.4,6.04-24.76,12.16-35.89,1.72-3.12,3.63-6.13,5.76-8.99l-1.45-.19c2.11,13.28-2.31,26.28-6.67,38.64-1.24,3.51-2.48,7.01-3.61,10.55-.31.97,1.22,1.39,1.52.42,4.05-12.71,9.74-25.16,10.74-38.63.28-3.81.14-7.63-.46-11.4-.12-.75-1.09-.67-1.45-.19-7.68,10.31-12.47,22.49-15.71,34.85-.9,3.44-1.68,6.91-2.37,10.4-.2.99,1.33,1.42,1.52.42h0Z"/>
        <path class="st1" d="M452.07,408.37c2.68-6.77,5.48-13.51,8.69-20.06,2.8-5.71,5.95-11.24,9.5-16.52,2.11-3.14,4.34-6.18,6.67-9.16l-1.35-.56c.1,4.85-.84,9.66-2.17,14.31-1.51,5.3-3.53,10.45-5.7,15.51-4.63,10.8-10.02,21.28-14.38,32.2-2.22,5.56-4.19,11.28-5.28,17.18-.18.99,1.34,1.42,1.52.42.97-5.24,2.64-10.33,4.55-15.3,2.1-5.48,4.52-10.83,6.98-16.16,4.83-10.47,10.04-20.9,13.4-31.97,1.59-5.23,2.77-10.71,2.66-16.2-.01-.62-.9-1.13-1.35-.56-4.1,5.24-7.92,10.69-11.29,16.43s-6.29,11.75-8.95,17.86c-1.75,4.02-3.41,8.08-5.03,12.16-.37.95,1.15,1.36,1.52.42h0Z"/>
        <path class="st1" d="M438.15,460.16c2.89-10.6,3.8-21.65,2.95-32.59s-3.24-21.04-6.65-31.11-7.62-19.35-12.39-28.57c-4.42-8.53-9.29-16.82-14.27-25.04-4.09-6.74-8.32-13.41-12.15-20.31-.39-.7-.78-1.41-1.16-2.12l-1.08,1.08c9.08,6.52,16.08,15.39,21.8,24.9,5.82,9.67,10.42,19.99,15.22,30.19,2.61,5.54,5.27,11.05,8.25,16.4.5.89,1.86.09,1.37-.8-5.46-9.78-9.87-20.09-14.74-30.16s-10.29-20.17-17.44-28.93c-3.99-4.88-8.54-9.28-13.66-12.96-.68-.49-1.43.44-1.08,1.08,3.57,6.67,7.61,13.08,11.55,19.53,4.87,7.98,9.68,16.01,14.1,24.26,4.84,9.03,9.25,18.32,12.78,27.94s6.38,20.13,7.6,30.6c1.25,10.74.87,21.67-1.51,32.24-.3,1.32-.63,2.64-.99,3.95-.27.98,1.26,1.4,1.52.42h0Z"/>
        <path class="st1" d="M184.74,454.47c-11.43-14.29-22.46-29.49-29.8-46.36-4.2-9.66-6.96-20.06-6.46-30.65.21-4.5,1.01-8.94,2.14-13.3.31-1.19-1.54-1.7-1.85-.51-2.21,8.58-2.89,17.3-1.45,26.07,2.18,13.34,8.43,25.82,15.43,37.24,6.19,10.09,13.25,19.63,20.64,28.87.77.96,2.12-.4,1.35-1.35h0Z"/>
        <path class="st1" d="M653.14,453.63c-7.37-10.49-9.48-24.16-8.78-36.73.2-3.58.67-7.14,1.42-10.65.26-1.2-1.59-1.71-1.85-.51-2.75,12.83-2.24,27.03,2.53,39.33,1.3,3.36,2.94,6.58,5.02,9.53.7,1,2.36.04,1.65-.97h0Z"/>
        <path class="st1" d="M149.71,466.1c-10.25-9.11-20.7-18.18-29.89-28.39-6.26-6.96-11.61-14.64-15.18-23.33-2.13-5.18-3.7-10.56-5.05-15.98-.3-1.19-2.14-.69-1.85.51,2.32,9.35,5.42,18.52,10.5,26.76,5.57,9.04,13.04,16.75,20.67,24.06,6.33,6.07,12.88,11.91,19.44,17.73.92.82,2.28-.53,1.35-1.35h0Z"/>
        <path class="st1" d="M213.87,453.01c-3.45-8.11-8.21-15.65-13.18-22.89-5.47-7.96-11.39-15.62-17.57-23.03-3.1-3.72-6.28-7.37-9.55-10.94-.83-.91-2.18.45-1.35,1.35,12.43,13.56,24.13,28.22,33.56,44.04,2.39,4.02,4.62,8.14,6.45,12.45.48,1.13,2.13.16,1.65-.97h0Z"/>
        <path class="st1" d="M589.89,423.01c-2.01-14.21-5.17-28.29-9.98-41.82-4.84-13.61-11.36-26.71-20.11-38.24-4.97-6.55-10.62-12.56-16.94-17.82-.94-.78-2.3.56-1.35,1.35,11.1,9.25,20.03,20.76,26.91,33.43,6.86,12.63,11.71,26.29,15.15,40.22,1.9,7.71,3.36,15.52,4.48,23.39.17,1.21,2.02.7,1.85-.51h0Z"/>
        <path class="st1" d="M457.41,395.16c4.6-12.75,8.41-25.78,12.92-38.57s9.71-26,17.35-37.5c4.44-6.69,9.94-12.53,16.27-17.47.97-.76-.39-2.1-1.35-1.35-5.73,4.47-10.81,9.7-15.03,15.61-3.88,5.45-7.09,11.36-9.93,17.4-6.05,12.89-10.52,26.46-14.91,39.98-2.32,7.15-4.61,14.32-7.16,21.39-.42,1.16,1.43,1.66,1.85.51h0Z"/>
        <path class="st1" d="M538.04,442.38c4.36-9.92,6.38-20.82,6.78-31.61.41-11.32-.99-23-5.2-33.58-2.21-5.54-5.19-10.73-9.18-15.18-.82-.92-2.17.44-1.35,1.35,7.05,7.86,10.8,18.14,12.6,28.41,1.91,10.9,1.71,22.27-.34,33.14-1.06,5.64-2.64,11.23-4.95,16.49-.49,1.12,1.16,2.09,1.65.97h0Z"/>
        <path class="st1" d="M220.18,418.46c-1.02-6.21-2.96-12.28-5.2-18.15-2.77-7.27-6.09-14.34-9.87-21.14s-8.31-13.76-13.36-20c-4.59-5.67-9.78-10.99-15.83-15.12s-12.52-6.72-19.6-6.38c-1.23.06-1.23,1.97,0,1.91,13.35-.65,24.66,9.75,32.68,19.25,9.97,11.81,17.7,25.75,23.39,40.08,2.57,6.46,4.82,13.17,5.94,20.05.2,1.21,2.04.7,1.85-.51h0Z"/>
        <path class="st1" d="M316.25,458.46c1.81-15.23,6.88-30.06,13.02-44.05,6.52-14.85,14.5-29.09,23.66-42.47,4.7-6.87,9.74-13.52,15.22-19.79.81-.92-.54-2.28-1.35-1.35-10.21,11.68-19.02,24.61-26.73,38.06-8.18,14.26-15.24,29.31-20.22,45-2.55,8.02-4.52,16.24-5.51,24.61-.15,1.22,1.77,1.21,1.91,0h0Z"/>
        <path class="st1" d="M402.17,451.21c-.42-9.83-2.3-19.65-4.67-29.18-2.66-10.66-6.09-21.23-10.9-31.13-2.3-4.75-4.96-9.35-8.31-13.44-.78-.95-2.13.41-1.35,1.35,6.17,7.52,10.13,16.9,13.38,25.98,3.64,10.17,6.38,20.71,8.22,31.36.86,4.98,1.51,10.01,1.73,15.06.05,1.23,1.97,1.23,1.91,0h0Z"/>
        <path class="st1" d="M413.9,441.75c8.08-7.54,9.42-20.08,8.84-30.5-.69-12.51-4.22-25.32-10.62-36.14-3.02-5.11-6.85-9.97-11.87-13.24-1.03-.67-1.99.98-.97,1.65,4.24,2.77,7.56,6.79,10.26,11.03,3.16,4.99,5.56,10.45,7.37,16.07,3.61,11.18,5.44,23.77,2.98,35.4-1.13,5.33-3.29,10.6-7.34,14.37-.9.84.45,2.19,1.35,1.35h0Z"/>
        <path class="st1" d="M439.33,390.58c-3.29-16.12-11-31.13-17.75-46.01s-14.2-31.39-15.95-48.34c-.92-8.94-.05-17.94,3.34-26.31.46-1.14-1.39-1.64-1.85-.51-6.2,15.33-3.78,32.12,1.17,47.43,5.42,16.76,13.66,32.42,20.57,48.58,3.55,8.3,6.81,16.81,8.62,25.67.25,1.21,2.09.7,1.85-.51h0Z"/>
        <path class="st1" d="M306.74,443.14c0-13.57-.43-27.14.08-40.71.51-13.57,1.79-27.37,6.03-40.35,2.44-7.46,5.77-14.64,9.7-21.43,2.34-4.04,4.91-8,7.97-11.54,2.49-2.88,5.47-5.88,9.13-7.19s7.64-.16,9.96,3.05c2.87,3.98,2.73,9.67,1.15,14.12-.38,1.08-.89,2.1-1.5,3.07-.66,1.04,1,2.01,1.65.97,4.76-7.53,4-22.28-7.01-23.63-3.71-.45-7.18,1.4-10,3.64-3.65,2.9-6.58,6.67-9.2,10.5-4.69,6.86-8.68,14.44-11.62,22.22-2.14,5.67-3.89,11.41-5.07,17.36-1.41,7.09-2.22,14.3-2.7,21.51-.97,14.45-.61,28.93-.5,43.39.01,1.68.02,3.35.02,5.03,0,1.23,1.91,1.23,1.91,0h0Z"/>
        <path class="st1" d="M471.1,442.11c.34-4.45.13-8.95.19-13.41.07-5.51.28-11.08,1.4-16.49.9-4.35,2.44-9.36,6.22-12.08,3.36-2.41,8.93-2.82,10.87,1.52s.12,10.33-3.56,13.17c-.96.74,0,2.41.97,1.65,3.89-3,5.85-8.25,5.07-13.09-.35-2.18-1.37-4.28-3.19-5.6-2.05-1.49-4.68-1.59-7.09-1.06-5.14,1.14-8.19,5.57-9.86,10.28-1.98,5.59-2.44,11.71-2.65,17.6s.16,11.7-.29,17.52c-.09,1.23,1.82,1.22,1.91,0h0Z"/>
        <path class="st1" d="M508.36,447.69c.89-14.49,2.34-28.95,2.72-43.47.38-14.39.25-29.54-4.1-43.41-1.91-6.1-4.84-12.11-9.66-16.44-.91-.82-2.27.53-1.35,1.35,4.17,3.74,6.84,8.79,8.66,14.03,2.2,6.36,3.3,13.08,3.93,19.77,1.42,15.11.61,30.38-.45,45.48-.53,7.56-1.18,15.12-1.65,22.68-.08,1.23,1.84,1.23,1.91,0h0Z"/>
        <path class="st1" d="M680.36,463.64c9.96-4.58,18.97-11.39,26.25-19.58,2.06-2.32,3.98-4.76,5.74-7.32.38-.55-.26-1.4-.89-1.16-10.72,4-20.41,10.19-29.73,16.74-2.71,1.91-5.4,3.85-8.09,5.79-.82.59-.03,1.96.8,1.37,9.26-6.69,18.58-13.46,28.82-18.6,2.81-1.41,5.68-2.68,8.62-3.78l-.89-1.16c-6.13,8.9-14.31,16.43-23.5,22.08-2.56,1.57-5.2,2.99-7.93,4.25-.92.42-.12,1.79.8,1.37h0Z"/>
        <path class="st1" d="M691.33,447.64c8.03-5.18,15.01-11.84,21.35-18.96,6.68-7.51,12.7-15.61,18.47-23.83,3.13-4.46,6.18-8.98,9.24-13.49.45-.67-.43-1.48-1.08-1.08-12.17,7.42-23.49,16.15-34.18,25.56-10.73,9.45-20.84,19.57-30.77,29.85-5.56,5.75-11.06,11.55-16.6,17.33-.7.73.41,1.85,1.12,1.12,9.85-10.28,19.61-20.65,29.75-30.66,10.1-9.97,20.57-19.59,31.81-28.26,6.31-4.87,12.87-9.43,19.67-13.58l-1.08-1.08c-5.48,8.08-10.96,16.17-16.84,23.97s-12.23,15.39-19.4,22.08c-3.81,3.55-7.87,6.84-12.24,9.67-.85.55-.06,1.92.8,1.37h0Z"/>
        <path class="st1" d="M654.63,464.01c17.76-14.56,30.64-34.69,36.68-56.83,1.67-6.1,2.79-12.34,3.4-18.64.12-1.23-1.8-1.22-1.91,0-2.16,22.21-11.26,43.65-25.75,60.63-4.18,4.9-8.8,9.41-13.77,13.49-.95.78.41,2.13,1.35,1.35h0Z"/>
      </g>
    </g>
  </g>
</svg>