<svg xmlns="http://www.w3.org/2000/svg" version="1.1" xmlns:xlink="http://www.w3.org/1999/xlink" width="512" height="512" x="0" y="0" viewBox="0 0 512 512" style="enable-background:new 0 0 512 512" xml:space="preserve" class=""><g><g fill-rule="evenodd"><path fill="#f9e581" d="M503.429 255.337V99.707a14.012 14.012 0 0 0-14.04-14H152.8l-4.695-30.7c-2.033-13.3-7.669-26.543-16.937-36.422A51.639 51.639 0 0 0 93.188 2H22.563a14 14 0 0 0 0 28h70.625c16.241 0 25.077 14.9 27.265 29.241l39.5 258.906-1.166.686A59.8 59.8 0 0 0 189.2 430.151h13.838l-2.315 3.177A48.318 48.318 0 0 0 239.865 510a48.413 48.413 0 0 0 48.335-48.354 47.909 47.909 0 0 0-9.194-28.318l-2.315-3.177H373.8l-2.292 3.171a48.354 48.354 0 1 0 78.149-.271l-1.888-2.571 3.136-.579a13.994 13.994 0 0 0-2.561-27.752H189.2a31.811 31.811 0 0 1-7.807-62.65l.243-.062h237.7a84.209 84.209 0 0 0 84.093-84.1z" opacity="1" data-original="#e7f2ff" class=""></path><path fill="#873015" d="M473.4 255.337a54.14 54.14 0 0 1-54.066 54.1H188.96l-29.533-193.728H473.4zM410.7 480a18.355 18.355 0 1 1 18.352-18.352A18.355 18.355 0 0 1 410.7 480zm-170.832 0a18.355 18.355 0 1 1 18.353-18.352A18.385 18.385 0 0 1 239.865 480zM505.43 255.337V99.707a16.012 16.012 0 0 0-16.041-16H154.521l-4.435-29c-2.17-14.512-8.4-27.83-17.456-37.487A53.639 53.639 0 0 0 93.189 0H22.564a16 16 0 0 0 0 32h70.625c15.569 0 23.353 14.833 25.288 27.542l39.3 257.568A61.8 61.8 0 0 0 189.2 432.151h9.9A50.316 50.316 0 0 0 239.865 512a50.414 50.414 0 0 0 50.335-50.354 49.893 49.893 0 0 0-9.577-29.5h89.261a50.353 50.353 0 1 0 81.381-.284 15.993 15.993 0 0 0-2.925-31.717H189.2a29.811 29.811 0 0 1-7.312-58.713H419.33a86.21 86.21 0 0 0 86.1-86.095z" opacity="1" data-original="#2e58ff" class=""></path></g></g></svg>