<?xml version="1.0" encoding="UTF-8"?>
<svg id="TEXTS" xmlns="http://www.w3.org/2000/svg" version="1.1" xmlns:xlink="http://www.w3.org/1999/xlink" viewBox="0 0 177.7 188.44">
  <!-- Generator: Adobe Illustrator 29.6.1, SVG Export Plug-In . SVG Version: 2.1.1 Build 9)  -->
  <defs>
    <style>
      .st0, .st1 {
        fill: #6e788c;
      }

      .st2 {
        fill: #60697a;
      }

      .st3 {
        fill: #d48456;
      }

      .st4 {
        fill: #edb587;
      }

      .st5 {
        fill: #8692ab;
      }

      .st6 {
        fill: #fff;
      }

      .st7 {
        fill: none;
      }

      .st1 {
        font-family: GenJyuuGothic-P-Bold, 'Gen Jyuu Gothic P';
        font-size: 23.07px;
        font-weight: 700;
        letter-spacing: .1em;
      }

      .st8 {
        fill: #6e788b;
      }

      .st9 {
        fill: #edd3bd;
      }

      .st10 {
        clip-path: url(#clippath);
      }
    </style>
    <clipPath id="clippath">
      <path class="st7" d="M118.69,29.54c13.74,0,24.88,11.14,24.88,24.88v70.35c0,4.36-3.54,7.91-7.92,7.91H45.4c-4.37,0-7.91-3.54-7.91-7.91V54.43c0-13.74,11.14-24.88,24.88-24.88h56.32Z"/>
    </clipPath>
  </defs>
  <g>
    <rect class="st3" x="37.49" y="66.13" width="106.08" height="66.56" rx="7.91" ry="7.91"/>
    <g class="st10">
      <g>
        <g>
          <path class="st0" d="M123.55,101.82l-.83,6.47-2.9,24.35s-3.7,2.39-10.81,4.31c-.61.16-1.25.33-1.91.48-2.6.61-5.58,1.14-8.95,1.47-.61.06-1.24.12-1.88.15-1.82.14-3.74.22-5.76.22s-3.94-.07-5.76-.22c-.64-.04-1.26-.09-1.87-.15-3.36-.33-6.34-.86-8.95-1.47-.66-.15-1.29-.32-1.91-.48-7.1-1.91-10.82-4.31-10.82-4.31l-2.9-24.35-.83-6.47h66.05Z"/>
          <g>
            <path class="st5" d="M84.77,101.82v37.24c-.64-.04-1.26-.09-1.87-.15v-37.08h1.87Z"/>
            <path class="st5" d="M73.96,137.43c-.66-.15-1.29-.32-1.91-.48l-2.03-35.13h1.88l2.06,35.61Z"/>
            <path class="st5" d="M98.16,101.82v37.08c-.61.06-1.24.12-1.88.15v-37.24h1.88Z"/>
            <path class="st5" d="M111.05,101.82l-2.03,35.13c-.61.16-1.25.33-1.91.48l2.05-35.61h1.89Z"/>
          </g>
          <path class="st2" d="M123.55,101.82l-.83,6.47c-1.58.14-3.33.13-5.25-.05-1.83,7.06-8.45,12-16.06,11.78-4.62-.14-8.33-1.55-10.89-4.04-2.56,2.49-6.27,3.89-10.89,4.04-.17,0-.34,0-.52,0-7.4,0-13.74-4.9-15.53-11.79-1.92.17-3.68.18-5.26.05l-.83-6.47h66.05Z"/>
        </g>
        <g>
          <g>
            <path class="st6" d="M82.3,64.99s1.38-26.36-13.77-33.43c-11.62-5.42-24.19,4.76-21.3,17.26,1.5,6.51,6.51,14.13,18.89,21.63l16.19-5.46Z"/>
            <path class="st4" d="M77.22,65.98s-4.72-16.54-13.4-21.49c-4.83-2.75-10.77,1.46-9.91,6.95.74,4.71,4.33,10.99,15.91,17.03l7.4-2.49Z"/>
          </g>
          <g>
            <path class="st6" d="M98.76,64.99s-1.38-26.36,13.77-33.43c11.62-5.42,24.19,4.76,21.3,17.26-1.5,6.51-6.51,14.13-18.89,21.63l-16.19-5.46Z"/>
            <path class="st4" d="M103.84,65.98s4.72-16.54,13.4-21.49c4.83-2.75,10.77,1.46,9.91,6.95-.74,4.71-4.33,10.99-15.91,17.03l-7.4-2.49Z"/>
          </g>
        </g>
        <path class="st6" d="M132.89,82.58c-4.57-9.14-12-14.86-19.37-18.43-14.47-7.01-31.51-7.01-45.98,0-7.37,3.58-14.81,9.29-19.37,18.43-1.93,3.85-2.64,8.26-1.65,12.45,1.34,5.7,5.84,12.05,19.75,9.67,0,0,0,.51.11,1.33.9,6.45,6.67,11.03,13.18,10.83,4.04-.12,9.08-1.4,10.98-6.62,1.9,5.21,6.95,6.49,10.98,6.62,6.51.2,12.28-4.38,13.18-10.83.11-.82.11-1.33.11-1.33,13.9,2.38,18.41-3.97,19.75-9.67.98-4.2.27-8.6-1.65-12.45Z"/>
        <g>
          <ellipse class="st8" cx="78.85" cy="76.12" rx="6.04" ry="6.91"/>
          <ellipse class="st8" cx="102.23" cy="76.12" rx="6.04" ry="6.91"/>
          <path class="st9" d="M94.68,81.17c-1.61,0-3.07.63-4.15,1.66-1.08-1.03-2.54-1.66-4.15-1.66-3.33,0-6.02,2.7-6.02,6.02s2.7,6.02,6.02,6.02c1.61,0,3.07-.63,4.15-1.66,1.08,1.03,2.54,1.66,4.15,1.66,3.33,0,6.02-2.7,6.02-6.02s-2.7-6.02-6.02-6.02Z"/>
          <path class="st8" d="M90.53,78.95c-2.26,0-3.14,1.01-3.47,1.9-.26.69,0,1.45.62,1.85.68.43,1.39.82,1.94,1.11.57.3,1.25.3,1.82,0,.54-.29,1.26-.68,1.94-1.11.58-.37.87-1.09.65-1.75-.3-.91-1.15-2-3.5-2Z"/>
          <path class="st3" d="M114.1,82.5c0,2.4-1.95,4.35-4.35,4.35s-4.35-1.95-4.35-4.35,1.95-4.35,4.35-4.35,4.35,1.95,4.35,4.35Z"/>
          <circle class="st3" cx="71.32" cy="82.5" r="4.35"/>
        </g>
      </g>
    </g>
  </g>
  <text class="st1" transform="translate(13.96 158.9)"><tspan x="0" y="0">BUNNY BUY</tspan></text>
</svg>